<svg width="24" height="24" viewBox="0 0 24 24" fill="none" xmlns="http://www.w3.org/2000/svg">
<path fill-rule="evenodd" clip-rule="evenodd" d="M3.995 4H20.005C21.107 4 22 4.89502 22 5.99402V18.006C22 19.106 21.098 20 20.005 20H3.995C2.893 20 2 19.105 2 18.006V5.99402C2 4.89402 2.902 4 3.995 4ZM18.778 8.04297C19.036 7.83797 19.075 7.46804 18.866 7.21704C18.656 6.96504 18.279 6.92698 18.022 7.13098L12 11.918L5.978 7.13196C5.721 6.92896 5.343 6.96699 5.134 7.21899C4.924 7.46899 4.964 7.83904 5.222 8.04504L9.122 11.145L5.932 15.048C5.724 15.301 5.766 15.671 6.025 15.873C6.285 16.077 6.662 16.036 6.869 15.783L10.053 11.887L11.621 13.132C11.841 13.307 12.157 13.307 12.377 13.132L13.945 11.886L17.13 15.782C17.338 16.035 17.716 16.0759 17.975 15.8719C18.235 15.6719 18.275 15.302 18.069 15.048L14.876 11.146L18.776 8.04602L18.778 8.04297Z" fill="#7189A9"/>
</svg>
