<svg width="24" height="24" viewBox="0 0 24 24" fill="none" xmlns="http://www.w3.org/2000/svg">
<path fill-rule="evenodd" clip-rule="evenodd" d="M17.0303 11.0845C17.0303 11.0845 16.0643 11.0845 16.0643 11.7945C16.0643 14.2815 14.5183 16.1495 12.0293 16.1495C9.76933 16.1495 9.27633 15.0995 9.22233 15.1545L10.8103 13.8195C11.5373 13.0925 10.7163 13.1035 10.7163 13.1035L6.41633 13.1015C5.88633 13.0155 6.01333 13.4955 6.01333 13.4955L6.04533 17.8905C6.05533 18.6425 6.78133 17.9105 6.78133 17.9105L7.92133 16.4665C7.92133 16.4665 9.53733 18.1265 12.0313 18.0845C15.5073 18.0845 17.9913 15.2675 17.9913 11.7945C17.9913 11.7945 18.0323 11.0845 17.0303 11.0845ZM18.0453 9.73451L18.0133 5.33949C18.0033 4.58749 17.2773 5.31947 17.2773 5.31947L16.1373 6.7635C16.1373 6.7635 14.5223 5.10352 12.0293 5.14552C8.55133 5.14552 6.06733 7.96252 6.06733 11.4375C6.06733 11.4375 6.02533 12.1455 7.02733 12.1455C7.02733 12.1455 7.99233 12.1455 7.99233 11.4375C7.99233 8.94752 9.53833 7.08052 12.0283 7.08052C14.2853 7.08052 14.7783 8.13052 14.8333 8.07552L13.2453 9.41151C12.5193 10.1385 13.3403 10.1275 13.3403 10.1275L17.6403 10.1305C18.1703 10.2145 18.0433 9.73549 18.0433 9.73549L18.0453 9.73451Z" fill="#7189A9"/>
</svg>
