<svg width="24" height="24" viewBox="0 0 24 24" fill="none" xmlns="http://www.w3.org/2000/svg">
<path fill-rule="evenodd" clip-rule="evenodd" d="M8.5005 19.0029C9.3975 19.0029 10.2955 18.6599 10.9785 17.9769L17.9755 10.9799C18.6375 10.3199 19.0025 9.43987 19.0025 8.50287C19.0025 7.56787 18.6385 6.68688 17.9755 6.02488C16.6085 4.65788 14.3855 4.65887 13.0195 6.02488C12.6795 6.36688 12.6795 6.92287 13.0215 7.26487C13.3615 7.60487 13.9175 7.60487 14.2615 7.26487C14.9415 6.58187 16.0545 6.58087 16.7375 7.26487C17.0675 7.59487 17.2515 8.03487 17.2515 8.50287C17.2515 8.97287 17.0675 9.41086 16.7375 9.74286L9.7425 16.7389C9.0585 17.4209 7.9465 17.4209 7.2625 16.7389C6.9325 16.4059 6.7525 15.9669 6.7525 15.4989C6.7505 15.0309 6.9325 14.5909 7.2625 14.2589L11.7465 9.77588C11.8585 9.66588 11.9885 9.64887 12.0565 9.64887C12.1235 9.64887 12.2535 9.66488 12.3665 9.77588C12.5365 9.94588 12.5365 10.2259 12.3665 10.3959L9.9295 12.8319C9.5875 13.1749 9.5875 13.7289 9.9295 14.0719C10.2725 14.4139 10.8265 14.4139 11.1695 14.0719L13.6065 11.6349C14.4595 10.7799 14.4595 9.39087 13.6065 8.53687C13.1925 8.12287 12.6425 7.89688 12.0565 7.89688C11.4715 7.89688 10.9205 8.12287 10.5065 8.53687L6.0245 13.0219C4.6585 14.3879 4.6585 16.6119 6.0245 17.9769C6.7075 18.6599 7.6045 19.0019 8.5025 19.0029" fill="#85B736"/>
</svg>
