<svg width="24" height="24" viewBox="0 0 24 24" fill="none" xmlns="http://www.w3.org/2000/svg">
<path fill-rule="evenodd" clip-rule="evenodd" d="M5 12.043C5 15.933 8.156 19.006 12.05 19.006C15.94 19.006 19.013 15.934 19.013 12.043C19.013 8.153 15.941 5 12.049 5C8.155 5 5 8.154 5 12.043ZM13.07 9.508H11.07V11.528H13.07C13.59 11.528 14.07 11.508 14.07 10.508C14.07 9.508 13.07 9.508 13.07 9.508ZM13.07 12.508H11.07V13.508H13.07V14.508H11.07V16.508H10.07V14.508H9.07V13.508H10.07V12.508H9.07V11.508H10.07V8.508H13.07C13.888 8.508 15.07 8.508 15.07 10.508C15.07 12.508 13.888 12.508 13.07 12.508Z" fill="#7189A9"/>
</svg>
