<svg width="120" height="48" viewBox="0 0 120 48" fill="none" xmlns="http://www.w3.org/2000/svg">
<path fill-rule="evenodd" clip-rule="evenodd" d="M15.1582 16C13.108 16 13 17.5633 13 17.9998V31.344H15.6981V25.0534H20.8063V22.2901H15.734V19.3465C15.734 19.0111 15.819 18.8 16.3518 18.8H20.4736C21.7418 18.8 22.7848 17.4546 22.7848 16H15.1582Z" fill="#F66303"/>
<path fill-rule="evenodd" clip-rule="evenodd" d="M28.7204 29.308C28.7204 29.308 24.3677 30.0353 24.3677 28.0536C24.3677 26.0719 28.7204 26.7992 28.7204 26.7992V29.308ZM26.3463 20.1816C26.3463 20.1816 24.3318 20.2179 22.7848 20.9089C22.7848 22.4359 23.7561 23.1632 26.0582 22.8358C28.3607 22.5084 28.7204 23.3448 28.7204 24.654C27.6053 24.654 21.7417 24.145 21.7417 28.1079C21.7417 32.0713 25.2669 32.2167 31.3106 31.3444V24.2904C31.3106 21.6724 29.5838 20.1816 26.3463 20.1816Z" fill="#F66303"/>
<path fill-rule="evenodd" clip-rule="evenodd" d="M33.397 31.3449V23.7983C33.397 21.4711 34.8361 19.5686 39.4765 20.0414C39.4765 20.0414 39.8809 22.3631 37.7139 22.5822C36.9943 22.6547 36.617 22.9939 36.419 23.315C36.266 23.5631 36.2026 23.8573 36.2026 24.1493V31.3449H33.397Z" fill="#F66303"/>
<path fill-rule="evenodd" clip-rule="evenodd" d="M89.3647 31.3449V23.7983C89.3647 21.4711 90.8039 19.5686 95.4443 20.0414C95.4443 20.0414 95.8486 22.3631 93.6816 22.5822C92.9621 22.6547 92.5848 22.9939 92.3868 23.315C92.2338 23.5631 92.1704 23.8573 92.1704 24.1493V31.3449H89.3647Z" fill="#F66303"/>
<path fill-rule="evenodd" clip-rule="evenodd" d="M46.8877 23.4177H44.2612V19.4181C44.2612 18.9816 44.5856 18.5817 45.0529 18.5817H46.9235C48.4885 18.5817 49.0046 19.9263 49.01 20.9451C49.0155 21.9269 48.5064 23.4177 46.8877 23.4177ZM47.4638 16H44.7294C43.2903 16 41.6353 16.6548 41.6353 19.0907V31.3444H44.2975V25.9805H47.3913C49.3698 25.9805 51.6365 24.145 51.6365 20.7998C51.6365 17.4546 49.3707 16 47.4638 16Z" fill="#F66303"/>
<path fill-rule="evenodd" clip-rule="evenodd" d="M58.1724 28.9019C56.4744 28.9019 55.6111 27.9584 55.6111 25.5655C55.6111 23.1726 56.341 22.2789 58.1724 22.2789C60.0038 22.2789 60.8093 23.3112 60.8093 25.6548C60.8093 27.9985 59.87 28.9019 58.1724 28.9019ZM58.1291 19.5273C55.4493 19.5273 52.6611 21.1635 52.6611 25.5449C52.6611 29.9262 55.1975 31.6534 58.1291 31.6534C61.0615 31.6534 63.7592 29.9991 63.7592 25.7083C63.7592 21.418 60.8093 19.5273 58.1291 19.5273Z" fill="#F66303"/>
<path fill-rule="evenodd" clip-rule="evenodd" d="M73.2381 21.0545C70.9715 19.7095 67.7522 19.964 66.457 21.0545C65.8241 21.5879 65.3922 22.5785 65.4064 23.6265C65.4214 24.7229 65.9379 25.8791 67.8423 26.5267C69.3652 27.045 70.1185 27.4862 70.3657 27.9307C70.4883 28.1507 70.4412 28.438 70.2665 28.618C69.8821 29.014 68.8066 29.3414 65.4368 28.2661C65.4368 28.2661 65.09 30.3523 64.9282 30.9523C67.9498 32.1157 71.2304 31.7744 72.5365 30.7084C73.6792 29.7759 73.9135 26.8133 72.3389 25.9309C71.6247 25.5306 70.9231 25.1164 70.2398 24.8514C69.0158 24.3765 68.0149 24.0883 68.2292 23.2177C68.5781 21.8045 70.4504 23.1815 71.5651 23.0728C72.6807 22.9632 73.3102 22.1273 73.2381 21.0545Z" fill="#F66303"/>
<path fill-rule="evenodd" clip-rule="evenodd" d="M77.9698 16V19.8205H80.8009V22.4536H78.0132V27.7986C78.0132 28.4627 78.7994 28.9726 79.3206 28.9726C79.8417 28.9726 80.9006 28.9258 80.9006 28.9258V31.4346C80.9006 31.4346 79.6762 31.4607 78.669 31.4607C76.8842 31.4607 75.3301 30.3985 75.3301 28.126V16H77.9698Z" fill="#F66303"/>
<path fill-rule="evenodd" clip-rule="evenodd" d="M86.9088 30.3982C86.9088 31.2717 86.208 31.9796 85.3438 31.9796C84.4796 31.9796 83.7788 31.2717 83.7788 30.3982C83.7788 29.5247 84.4796 28.8164 85.3438 28.8164C86.208 28.8164 86.9088 29.5247 86.9088 30.3982Z" fill="#F66303"/>
<path fill-rule="evenodd" clip-rule="evenodd" d="M99.8052 20.3806V27.0525C99.8052 28.0347 99.9311 30.2342 104.248 29.1796V20.2715H107V31.2704C107 31.2704 104.734 31.9429 102.251 31.9429C99.7693 31.9429 96.9453 31.4157 96.9453 26.7074V20.3263L99.8052 20.3806Z" fill="#F66303"/>
</svg>
